<svg id="svg" version="1.1" viewBox="0 0 300 300" width="300" height="300" xmlns="http://www.w3.org/2000/svg"><svg xmlns="http://www.w3.org/2000/svg"><defs><clipPath id="clip-1"><rect x="0" y="0" transform="scale(0.14648,0.14648)" width="2048" height="2048" fill="none"/></clipPath></defs><g clip-path="url(#clip-1)" fill="none" fill-rule="nonzero" stroke="none" stroke-width="1" stroke-linecap="butt" stroke-linejoin="miter" stroke-miterlimit="10" stroke-dasharray="" stroke-dashoffset="0" font-family="none" font-weight="none" font-size="none" text-anchor="none" style="mix-blend-mode: normal"><path d="M107.06689,90.57378c2.52246,-0.05054 5.39619,0.07559 7.98618,0.07881l20.77852,0.00117l16.52827,-0.00864c7.08838,-0.00981 13.60986,-0.52061 20.45361,1.48301c9.91406,2.90229 18.71338,9.44956 23.76123,18.48325c5.62354,10.23472 6.99609,22.27031 3.82324,33.50859c-2.61768,9.10708 -8.34668,17.00552 -16.19092,22.32144c-1.86328,1.25977 -3.78662,2.11963 -5.73779,3.20508c0.44531,1.1792 3.75439,5.99268 4.65527,7.39307c4.25391,6.70898 8.54883,13.3916 12.88477,20.04639c1.35498,2.10498 5.46973,8.24121 6.25781,10.15283l-0.06738,0.16113c-1.11621,0.14941 -3.04395,0.03369 -4.25098,0.0293l-8.76416,-0.01318c-3.88477,0.00586 -7.94824,0.06445 -11.81689,-0.02783c-2.33203,-3.20068 -4.95703,-7.68018 -7.11035,-11.10205l-10.64648,-16.58643c-1.31396,-2.02588 -2.57373,-4.15869 -3.90674,-6.13916c-2.96924,-0.18164 -7.875,-0.00146 -10.98384,0.01611c-0.15337,-3.48193 0.02915,-7.39014 -0.01318,-10.92773c-0.03311,-2.7627 -0.01025,-5.85205 0.21826,-8.59424c0.02476,-0.29736 0.14707,-1.04004 0.45527,-1.09277c1.04517,-0.17725 2.51294,-0.06299 3.51343,-0.09375c8.37012,-0.25488 16.51318,1.40771 23.71289,-4.01367c4.1001,-3.08657 6.99756,-7.55273 7.66699,-12.57319c0.76758,-5.77207 -0.23437,-12.53101 -3.99902,-17.10806c-6.38379,-7.76396 -13.74023,-7.33433 -22.58496,-7.43599c-4.33008,-0.06475 -8.66191,-0.09492 -12.99331,-0.09009c-2.16431,0.01421 -4.67021,0.13872 -6.80977,-0.02622c-0.94248,-0.07266 -1.93726,-2.61094 -2.85908,-3.74678c-6.15293,-7.58145 -15.21445,-10.70786 -24.46304,-11.9688c-0.179,-1.17759 -0.40459,-3.81079 -0.06519,-4.99014c0.06357,-0.22075 0.2748,-0.22544 0.56733,-0.34146z" fill="#51cb85"/><path d="M96.64688,101.25806c9.43491,-0.41206 18.84639,1.03228 26.40557,7.17612c5.47646,4.45122 8.29131,10.20132 8.99194,17.13384c0.13184,1.30415 -0.08452,4.14814 0.1752,4.87544c0.47622,1.33315 1.68955,3.37822 2.2938,4.85215c1.98164,4.83442 2.32383,8.50254 2.78877,13.55596c0.57539,-0.95508 3.06958,-5.41611 3.33735,-6.13726c-0.10547,-0.60586 -0.18003,-1.2167 -0.22339,-1.83018c-0.68159,-10.30811 11.84414,-16.93022 20.69619,-16.28203c0.69141,0.05068 1.93945,-0.26089 2.45215,0.20068c0.0791,0.30425 0.13916,0.63809 0.08203,0.95654c-0.97998,5.38169 -2.89307,11.91973 -7.37402,15.42144c-3.34863,2.61738 -7.35059,3.98716 -11.53052,3.49541c1.01821,-3.13667 3.19409,-6.33765 5.1731,-8.97832c1.29492,-1.72793 3.18164,-3.42744 4.66553,-5.06851c-3.32666,0.86924 -4.43115,2.34858 -6.8335,4.6645c-2.66089,2.50781 -4.4146,5.3124 -5.78862,8.67114c-2.6896,6.57407 -3.08174,12.20493 -3.08335,19.19077l0.00615,10.06201l0.03032,34.18359c-2.15405,0.07178 -4.52227,0.03223 -6.69272,0.03955c-0.10986,-1.80029 -0.04058,-4.1792 -0.03501,-6.03809l0.02432,-10.40332l0.05962,-33.81152c-0.01084,-5.00098 0.35405,-13.20366 -0.52002,-17.81265c-1.24438,-6.52412 -3.95083,-12.68145 -7.91631,-18.00937c-2.95913,-4.02495 -8.05796,-8.61445 -12.55562,-11.03496c-0.37046,-0.19937 -1.41416,-0.35112 -1.87397,-0.42202c1.07271,1.36597 3.53423,3.55474 4.86577,4.9667c3.61377,3.87803 6.65874,8.24941 9.0438,12.98335c1.78623,3.55591 2.24004,4.3541 -2.44248,4.09541c-5.13618,-0.30161 -10.44697,-2.72534 -14.28662,-6.13638c-5.66572,-5.03306 -8.5979,-12.41733 -10.32759,-19.63052c-0.30264,-1.26196 -0.89883,-3.27788 -0.81738,-4.4959c0.46655,-0.41191 0.48765,-0.29722 1.20952,-0.43359z" fill="#fbcb36"/><path d="M106.42412,133.04136c0.8707,0.24946 3.09463,1.76968 4.15195,2.26553c5.49126,2.57549 8.79009,2.79126 14.65444,2.72886c1.34033,4.43555 1.04297,9.29678 1.06538,13.86855l0.02563,13.59082l0.0457,25.82813c-0.03486,5.2251 -0.01392,10.4502 0.06255,15.67529l-0.09434,0.2666c-0.34556,0.25928 -18.19424,0.16406 -19.96479,0.1626c-0.12861,-5.20898 -0.01729,-10.95557 -0.01802,-16.21436l-0.00132,-30.63135l-0.00161,-17.56333c-0.00615,-2.75962 -0.14604,-7.34839 0.07441,-9.97734z" fill="#51cb85"/></g></svg></svg>